<svg width="16" height="16" viewBox="0 0 16 16" fill="none" xmlns="http://www.w3.org/2000/svg">
<path d="M7.33325 8.66683H3.99992C3.81103 8.66683 3.65281 8.60283 3.52525 8.47483C3.3977 8.34683 3.3337 8.18861 3.33325 8.00016C3.33281 7.81172 3.39681 7.6535 3.52525 7.5255C3.6537 7.3975 3.81192 7.3335 3.99992 7.3335H7.33325V4.00017C7.33325 3.81128 7.39725 3.65305 7.52525 3.5255C7.65325 3.39794 7.81148 3.33394 7.99992 3.3335C8.18837 3.33305 8.34681 3.39705 8.47525 3.5255C8.6037 3.65394 8.66748 3.81217 8.66659 4.00017V7.3335H11.9999C12.1888 7.3335 12.3473 7.3975 12.4753 7.5255C12.6033 7.6535 12.667 7.81172 12.6666 8.00016C12.6661 8.18861 12.6021 8.34705 12.4746 8.4755C12.347 8.60394 12.1888 8.66772 11.9999 8.66683H8.66659V12.0002C8.66659 12.1891 8.60259 12.3475 8.47459 12.4755C8.34659 12.6035 8.18837 12.6673 7.99992 12.6668C7.81148 12.6664 7.65325 12.6024 7.52525 12.4748C7.39725 12.3473 7.33325 12.1891 7.33325 12.0002V8.66683Z" fill="white"/>
</svg>
