<svg width="16" height="16" viewBox="0 0 16 16" fill="none" xmlns="http://www.w3.org/2000/svg">
<g clip-path="url(#clip0_764_5098)">
<path d="M7.668 1V15.67H8.33467V12.336H10.3353V15.67H14.3367V1H7.668ZM11.6693 1.66667V3H10.336V1.66667H11.6693ZM11.6693 5.00067H10.336V3.66733H11.6693V5.00067ZM11.6693 7.00133H10.336V5.668H11.6693V7.00133ZM11.6693 9.00133H10.336V7.668H11.6693V9.00133ZM11.6693 11.002H10.336V9.66867H11.6693V11.002ZM8.33467 1.66667H9.668V3H8.33467V1.66667ZM8.33467 3.66667H9.668V5.00067H8.33467V3.66667ZM8.33467 5.668H9.668V7.00133H8.33467V5.668ZM8.33467 7.668H9.668V9.00133H8.33467V7.668ZM8.33467 9.66867H9.668V11.002H8.33467V9.66867ZM13.6693 14.3367H11.0027V12.336H13.6693V14.3367ZM13.6693 11.002H12.336V9.66867H13.6693V11.002ZM13.6693 9.002H12.336V7.66867H13.6693V9.002ZM13.6693 7.00133H12.336V5.668H13.6693V7.00133ZM13.6693 5.00133H12.336V3.66667H13.6693V5.00133ZM13.6693 3.00067H12.336V1.66733H13.6693V3.00067ZM1 5.66733V15.67H3V13.0027H5.00067V15.6693H7.00133V5.668L1 5.66733ZM1.66667 6.334H3.66667V7.668H1.66667V6.334ZM1.66667 8.33467H3.66667V9.668H1.66667V8.33467ZM1.66667 11.6687V10.3353H3.66667V11.6687H1.66667ZM6.33467 11.6687H4.33467V10.3353H6.33467V11.6687ZM6.33467 9.66867H4.33467V8.33533H6.33467V9.66867ZM6.33467 7.66867H4.33467V6.334H6.33467V7.66867Z" fill="white"/>
</g>
<defs>
<clipPath id="clip0_764_5098">
<rect width="16" height="16" fill="white"/>
</clipPath>
</defs>
</svg>
