<svg width="24" height="24" viewBox="0 0 24 24" fill="none" xmlns="http://www.w3.org/2000/svg">
<path d="M9.31002 17.29C9.21732 17.1975 9.14377 17.0876 9.09359 16.9666C9.04341 16.8456 9.01758 16.7159 9.01758 16.585C9.01758 16.454 9.04341 16.3243 9.09359 16.2034C9.14377 16.0824 9.21732 15.9725 9.31002 15.88L13.19 12L9.31002 8.11998C9.12304 7.933 9.018 7.67941 9.018 7.41498C9.018 7.15055 9.12304 6.89695 9.31002 6.70998C9.497 6.523 9.7506 6.41796 10.015 6.41796C10.2794 6.41796 10.533 6.523 10.72 6.70998L15.31 11.3C15.4027 11.3925 15.4763 11.5024 15.5265 11.6234C15.5766 11.7443 15.6025 11.874 15.6025 12.005C15.6025 12.1359 15.5766 12.2656 15.5265 12.3866C15.4763 12.5076 15.4027 12.6175 15.31 12.71L10.72 17.3C10.34 17.68 9.70002 17.68 9.31002 17.29Z" fill="white"/>
</svg>
