<svg width="16" height="16" viewBox="0 0 16 16" fill="none" xmlns="http://www.w3.org/2000/svg">
<path d="M8 10C9.10457 10 10 9.10457 10 8C10 6.89543 9.10457 6 8 6C6.89543 6 6 6.89543 6 8C6 9.10457 6.89543 10 8 10Z" stroke="white"/>
<path d="M9.17648 1.43471C8.93181 1.33337 8.62115 1.33337 7.99981 1.33337C7.37848 1.33337 7.06781 1.33337 6.82315 1.43471C6.66127 1.50172 6.51418 1.59997 6.39029 1.72386C6.26641 1.84774 6.16815 1.99483 6.10115 2.15671C6.03981 2.30537 6.01515 2.47937 6.00581 2.73204C6.00147 2.91466 5.95088 3.09319 5.85877 3.25094C5.76667 3.40869 5.63605 3.5405 5.47915 3.63404C5.31968 3.72322 5.1402 3.77049 4.9575 3.77142C4.7748 3.77235 4.59484 3.72692 4.43448 3.63937C4.21048 3.52071 4.04848 3.45537 3.88781 3.43404C3.53736 3.38795 3.18295 3.48291 2.90248 3.69804C2.69315 3.86004 2.53715 4.12871 2.22648 4.66671C1.91581 5.20471 1.75981 5.47337 1.72581 5.73671C1.7029 5.91034 1.71443 6.08679 1.75972 6.25597C1.80502 6.42515 1.88321 6.58375 1.98981 6.72271C2.08848 6.85071 2.22648 6.95804 2.44048 7.09271C2.75581 7.29071 2.95848 7.62804 2.95848 8.00004C2.95848 8.37204 2.75581 8.70937 2.44048 8.90671C2.22648 9.04204 2.08781 9.14937 1.98981 9.27737C1.88321 9.41633 1.80502 9.57493 1.75972 9.74411C1.71443 9.91329 1.7029 10.0897 1.72581 10.2634C1.76048 10.526 1.91581 10.7954 2.22581 11.3334C2.53715 11.8714 2.69248 12.14 2.90248 12.302C3.04144 12.4086 3.20004 12.4868 3.36922 12.5321C3.5384 12.5774 3.71484 12.589 3.88848 12.566C4.04848 12.5447 4.21048 12.4794 4.43448 12.3607C4.59484 12.2732 4.7748 12.2277 4.9575 12.2287C5.1402 12.2296 5.31968 12.2769 5.47915 12.366C5.80115 12.5527 5.99248 12.896 6.00581 13.268C6.01515 13.5214 6.03915 13.6947 6.10115 13.8434C6.16815 14.0053 6.26641 14.1523 6.39029 14.2762C6.51418 14.4001 6.66127 14.4984 6.82315 14.5654C7.06781 14.6667 7.37848 14.6667 7.99981 14.6667C8.62115 14.6667 8.93181 14.6667 9.17648 14.5654C9.33836 14.4984 9.48544 14.4001 9.60933 14.2762C9.73321 14.1523 9.83147 14.0053 9.89848 13.8434C9.95981 13.6947 9.98448 13.5214 9.99381 13.268C10.0071 12.896 10.1985 12.552 10.5205 12.366C10.6799 12.2769 10.8594 12.2296 11.0421 12.2287C11.2248 12.2277 11.4048 12.2732 11.5651 12.3607C11.7891 12.4794 11.9511 12.5447 12.1111 12.566C12.2848 12.589 12.4612 12.5774 12.6304 12.5321C12.7996 12.4868 12.9582 12.4086 13.0971 12.302C13.3071 12.1407 13.4625 11.8714 13.7731 11.3334C14.0838 10.7954 14.2398 10.5267 14.2738 10.2634C14.2967 10.0897 14.2852 9.91329 14.2399 9.74411C14.1946 9.57493 14.1164 9.41633 14.0098 9.27737C13.9111 9.14937 13.7731 9.04204 13.5591 8.90737C13.4031 8.81231 13.2737 8.6792 13.1831 8.52051C13.0925 8.36183 13.0437 8.18275 13.0411 8.00004C13.0411 7.62804 13.2438 7.29071 13.5591 7.09337C13.7731 6.95804 13.9118 6.85071 14.0098 6.72271C14.1164 6.58375 14.1946 6.42515 14.2399 6.25597C14.2852 6.08679 14.2967 5.91034 14.2738 5.73671C14.2391 5.47404 14.0838 5.20471 13.7738 4.66671C13.4625 4.12871 13.3071 3.86004 13.0971 3.69804C12.9582 3.59143 12.7996 3.51325 12.6304 3.46795C12.4612 3.42265 12.2848 3.41113 12.1111 3.43404C11.9511 3.45537 11.7891 3.52071 11.5645 3.63937C11.4042 3.7268 11.2244 3.77217 11.0418 3.77124C10.8592 3.77031 10.6799 3.7231 10.5205 3.63404C10.3636 3.5405 10.233 3.40869 10.1409 3.25094C10.0487 3.09319 9.99815 2.91466 9.99381 2.73204C9.98448 2.47871 9.96048 2.30537 9.89848 2.15671C9.83147 1.99483 9.73321 1.84774 9.60933 1.72386C9.48544 1.59997 9.33836 1.50172 9.17648 1.43471Z" stroke="white"/>
</svg>
