<svg width="16" height="16" viewBox="0 0 16 16" fill="none" xmlns="http://www.w3.org/2000/svg">
<path d="M2.66675 11.9999C2.66675 11.2927 2.9477 10.6144 3.4478 10.1143C3.94789 9.6142 4.62617 9.33325 5.33341 9.33325H10.6667C11.374 9.33325 12.0523 9.6142 12.5524 10.1143C13.0525 10.6144 13.3334 11.2927 13.3334 11.9999C13.3334 12.3535 13.1929 12.6927 12.9429 12.9427C12.6928 13.1928 12.3537 13.3333 12.0001 13.3333H4.00008C3.64646 13.3333 3.30732 13.1928 3.05727 12.9427C2.80722 12.6927 2.66675 12.3535 2.66675 11.9999Z" stroke="white" stroke-width="1.33333" stroke-linejoin="round"/>
<path d="M8 6.66663C9.10457 6.66663 10 5.7712 10 4.66663C10 3.56206 9.10457 2.66663 8 2.66663C6.89543 2.66663 6 3.56206 6 4.66663C6 5.7712 6.89543 6.66663 8 6.66663Z" stroke="white" stroke-width="1.33333"/>
</svg>
