<svg width="46" height="46" viewBox="0 0 46 46" fill="none" xmlns="http://www.w3.org/2000/svg">
<rect width="46" height="46" rx="6" fill="#9333EA" fill-opacity="0.2"/>
<path d="M22.1666 23.8332H18C17.7639 23.8332 17.5661 23.7532 17.4066 23.5932C17.2472 23.4332 17.1672 23.2354 17.1666 22.9998C17.1661 22.7643 17.2461 22.5665 17.4066 22.4065C17.5672 22.2465 17.765 22.1665 18 22.1665H22.1666V17.9998C22.1666 17.7637 22.2466 17.566 22.4066 17.4065C22.5666 17.2471 22.7644 17.1671 23 17.1665C23.2355 17.166 23.4336 17.246 23.5941 17.4065C23.7547 17.5671 23.8344 17.7648 23.8333 17.9998V22.1665H28C28.2361 22.1665 28.4341 22.2465 28.5941 22.4065C28.7541 22.5665 28.8339 22.7643 28.8333 22.9998C28.8327 23.2354 28.7527 23.4335 28.5933 23.594C28.4339 23.7546 28.2361 23.8343 28 23.8332H23.8333V27.9998C23.8333 28.236 23.7533 28.434 23.5933 28.594C23.4333 28.754 23.2355 28.8337 23 28.8332C22.7644 28.8326 22.5666 28.7526 22.4066 28.5932C22.2466 28.4337 22.1666 28.236 22.1666 27.9998V23.8332Z" fill="#9333EA"/>
</svg>
