<svg width="16" height="16" viewBox="0 0 16 16" fill="none" xmlns="http://www.w3.org/2000/svg">
<path d="M4.6665 11.9998V10.6665M7.99984 11.9998V9.99984M11.3332 11.9998V8.6665M1.6665 7.99984C1.6665 5.0145 1.6665 3.52117 2.59384 2.59384C3.52117 1.6665 5.01384 1.6665 7.99984 1.6665C10.9852 1.6665 12.4785 1.6665 13.4058 2.59384C14.3332 3.52117 14.3332 5.01384 14.3332 7.99984C14.3332 10.9852 14.3332 12.4785 13.4058 13.4058C12.4785 14.3332 10.9858 14.3332 7.99984 14.3332C5.0145 14.3332 3.52117 14.3332 2.59384 13.4058C1.6665 12.4785 1.6665 10.9858 1.6665 7.99984Z" stroke="#0A2540" stroke-opacity="0.4" stroke-linecap="round" stroke-linejoin="round"/>
<path d="M3.99463 7.65699C5.4313 7.70499 8.6893 7.48832 10.5426 4.54699M9.32796 4.19166L10.5786 3.99032C10.7306 3.97099 10.9546 4.09166 11.01 4.23499L11.34 5.32699" stroke="#0A2540" stroke-opacity="0.4" stroke-linecap="round" stroke-linejoin="round"/>
</svg>
