<svg width="36" height="36" viewBox="0 0 36 36" fill="none" xmlns="http://www.w3.org/2000/svg">
<rect width="36" height="36" rx="6" fill="#EF5350" fill-opacity="0.2"/>
<path d="M15.3 21.75L18 19.05L20.7 21.75L21.75 20.7L19.05 18L21.75 15.3L20.7 14.25L18 16.95L15.3 14.25L14.25 15.3L16.95 18L14.25 20.7L15.3 21.75ZM18 25.5C16.9625 25.5 15.9875 25.303 15.075 24.909C14.1625 24.515 13.3688 23.9808 12.6938 23.3063C12.0188 22.6318 11.4845 21.838 11.091 20.925C10.6975 20.012 10.5005 19.037 10.5 18C10.4995 16.963 10.6965 15.988 11.091 15.075C11.4855 14.162 12.0198 13.3683 12.6938 12.6938C13.3678 12.0193 14.1615 11.485 15.075 11.091C15.9885 10.697 16.9635 10.5 18 10.5C19.0365 10.5 20.0115 10.697 20.925 11.091C21.8385 11.485 22.6323 12.0193 23.3063 12.6938C23.9803 13.3683 24.5148 14.162 24.9098 15.075C25.3048 15.988 25.5015 16.963 25.5 18C25.4985 19.037 25.3015 20.012 24.909 20.925C24.5165 21.838 23.9823 22.6318 23.3063 23.3063C22.6303 23.9808 21.8365 24.5152 20.925 24.9097C20.0135 25.3042 19.0385 25.501 18 25.5ZM18 24C19.675 24 21.0938 23.4187 22.2563 22.2562C23.4187 21.0937 24 19.675 24 18C24 16.325 23.4187 14.9062 22.2563 13.7437C21.0938 12.5812 19.675 12 18 12C16.325 12 14.9063 12.5812 13.7438 13.7437C12.5813 14.9062 12 16.325 12 18C12 19.675 12.5813 21.0937 13.7438 22.2562C14.9063 23.4187 16.325 24 18 24Z" fill="#EF5350"/>
</svg>
