<svg width="18" height="18" viewBox="0 0 18 18" fill="none" xmlns="http://www.w3.org/2000/svg">
<path d="M7.16264 11.3625L13.5189 5.00625C13.6689 4.85625 13.8439 4.78125 14.0439 4.78125C14.2439 4.78125 14.4189 4.85625 14.5689 5.00625C14.7189 5.15625 14.7939 5.3345 14.7939 5.541C14.7939 5.7475 14.7189 5.9255 14.5689 6.075L7.68764 12.975C7.53764 13.125 7.36264 13.2 7.16264 13.2C6.96264 13.2 6.78764 13.125 6.63764 12.975L3.41264 9.75C3.26264 9.6 3.19064 9.422 3.19664 9.216C3.20264 9.01 3.28089 8.83175 3.43139 8.68125C3.58189 8.53075 3.76014 8.45575 3.96614 8.45625C4.17214 8.45675 4.35014 8.53175 4.50014 8.68125L7.16264 11.3625Z" fill="#22C55E"/>
</svg>
