<svg width="24" height="24" viewBox="0 0 24 24" fill="none" xmlns="http://www.w3.org/2000/svg">
<path d="M15.5 14C15.1685 14 14.8505 13.8683 14.6161 13.6339C14.3817 13.3995 14.25 13.0815 14.25 12.75C14.25 12.4185 14.3817 12.1005 14.6161 11.8661C14.8505 11.6317 15.1685 11.5 15.5 11.5C15.8315 11.5 16.1495 11.6317 16.3839 11.8661C16.6183 12.1005 16.75 12.4185 16.75 12.75C16.75 13.0815 16.6183 13.3995 16.3839 13.6339C16.1495 13.8683 15.8315 14 15.5 14ZM15.5 17.5C15.1685 17.5 14.8505 17.3683 14.6161 17.1339C14.3817 16.8995 14.25 16.5815 14.25 16.25C14.25 15.9185 14.3817 15.6005 14.6161 15.3661C14.8505 15.1317 15.1685 15 15.5 15C15.8315 15 16.1495 15.1317 16.3839 15.3661C16.6183 15.6005 16.75 15.9185 16.75 16.25C16.75 16.5815 16.6183 16.8995 16.3839 17.1339C16.1495 17.3683 15.8315 17.5 15.5 17.5ZM10.75 12.75C10.75 13.0815 10.8817 13.3995 11.1161 13.6339C11.3505 13.8683 11.6685 14 12 14C12.3315 14 12.6495 13.8683 12.8839 13.6339C13.1183 13.3995 13.25 13.0815 13.25 12.75C13.25 12.4185 13.1183 12.1005 12.8839 11.8661C12.6495 11.6317 12.3315 11.5 12 11.5C11.6685 11.5 11.3505 11.6317 11.1161 11.8661C10.8817 12.1005 10.75 12.4185 10.75 12.75ZM12 17.5C11.6685 17.5 11.3505 17.3683 11.1161 17.1339C10.8817 16.8995 10.75 16.5815 10.75 16.25C10.75 15.9185 10.8817 15.6005 11.1161 15.3661C11.3505 15.1317 11.6685 15 12 15C12.3315 15 12.6495 15.1317 12.8839 15.3661C13.1183 15.6005 13.25 15.9185 13.25 16.25C13.25 16.5815 13.1183 16.8995 12.8839 17.1339C12.6495 17.3683 12.3315 17.5 12 17.5ZM7.25 12.75C7.25 13.0815 7.38169 13.3995 7.61612 13.6339C7.85054 13.8683 8.16848 14 8.5 14C8.83152 14 9.14946 13.8683 9.38388 13.6339C9.6183 13.3995 9.75 13.0815 9.75 12.75C9.75 12.4185 9.6183 12.1005 9.38388 11.8661C9.14946 11.6317 8.83152 11.5 8.5 11.5C8.16848 11.5 7.85054 11.6317 7.61612 11.8661C7.38169 12.1005 7.25 12.4185 7.25 12.75Z" fill="#717C8F" fill-opacity="0.8"/>
<path fill-rule="evenodd" clip-rule="evenodd" d="M16 3.25C15.8011 3.25 15.6103 3.32902 15.4697 3.46967C15.329 3.61032 15.25 3.80109 15.25 4V4.75H8.75V4C8.75 3.80109 8.67098 3.61032 8.53033 3.46967C8.38968 3.32902 8.19891 3.25 8 3.25C7.80109 3.25 7.61032 3.32902 7.46967 3.46967C7.32902 3.61032 7.25 3.80109 7.25 4V4.758C7.098 4.762 6.95633 4.76933 6.825 4.78C6.445 4.81 6.089 4.878 5.752 5.05C5.23445 5.31367 4.81367 5.73445 4.55 6.252C4.378 6.589 4.31 6.945 4.28 7.325C4.25 7.69 4.25 8.135 4.25 8.67V16.33C4.25 16.865 4.25 17.31 4.28 17.675C4.31 18.055 4.378 18.411 4.55 18.748C4.81341 19.2654 5.23382 19.6862 5.751 19.95C6.089 20.122 6.445 20.19 6.825 20.22C7.19 20.25 7.635 20.25 8.169 20.25H15.83C16.365 20.25 16.81 20.25 17.175 20.22C17.555 20.19 17.911 20.122 18.248 19.95C18.7652 19.6869 19.186 19.2668 19.45 18.75C19.622 18.412 19.69 18.056 19.72 17.676C19.75 17.311 19.75 16.866 19.75 16.332V8.67C19.75 8.135 19.75 7.69 19.72 7.325C19.69 6.945 19.622 6.589 19.45 6.252C19.1863 5.73445 18.7656 5.31367 18.248 5.05C17.911 4.878 17.555 4.81 17.175 4.78C17.0437 4.76933 16.902 4.762 16.75 4.758V4C16.75 3.90151 16.7306 3.80398 16.6929 3.71299C16.6552 3.62199 16.6 3.53931 16.5303 3.46967C16.4607 3.40003 16.378 3.34478 16.287 3.30709C16.196 3.2694 16.0985 3.25 16 3.25ZM16.75 6.5V6.258C16.8511 6.26111 16.9522 6.26678 17.053 6.275C17.34 6.298 17.477 6.34 17.567 6.386C17.8026 6.50591 17.9941 6.69741 18.114 6.933C18.16 7.023 18.202 7.16 18.225 7.447C18.249 7.743 18.25 8.127 18.25 8.7V9.25H5.75V8.7C5.75 8.128 5.75 7.743 5.775 7.447C5.798 7.16 5.84 7.023 5.886 6.933C6.00591 6.69741 6.19742 6.50591 6.433 6.386C6.523 6.34 6.66 6.298 6.948 6.275C7.04851 6.2668 7.14921 6.26113 7.25 6.258V6.5C7.25 6.69891 7.32902 6.88968 7.46967 7.03033C7.61032 7.17098 7.80109 7.25 8 7.25C8.19891 7.25 8.38968 7.17098 8.53033 7.03033C8.67098 6.88968 8.75 6.69891 8.75 6.5V6.25H15.25V6.5C15.25 6.69891 15.329 6.88968 15.4697 7.03033C15.6103 7.17098 15.8011 7.25 16 7.25C16.1989 7.25 16.3897 7.17098 16.5303 7.03033C16.671 6.88968 16.75 6.69891 16.75 6.5ZM5.75 10.25H18.25V16.3C18.25 16.872 18.25 17.257 18.225 17.552C18.202 17.84 18.16 17.977 18.114 18.067C17.994 18.303 17.803 18.494 17.567 18.614C17.477 18.66 17.34 18.702 17.053 18.725C16.757 18.749 16.373 18.75 15.8 18.75H8.2C7.628 18.75 7.243 18.75 6.948 18.725C6.66 18.702 6.523 18.66 6.433 18.614C6.19742 18.4941 6.00591 18.3026 5.886 18.067C5.84 17.977 5.798 17.84 5.775 17.552C5.751 17.257 5.75 16.872 5.75 16.3V10.25Z" fill="#717C8F" fill-opacity="0.8"/>
<path fill-rule="evenodd" clip-rule="evenodd" d="M14.25 7.75C14.25 7.55109 14.171 7.36032 14.0303 7.21967C13.8897 7.07902 13.6989 7 13.5 7H10.5C10.3011 7 10.1103 7.07902 9.96967 7.21967C9.82902 7.36032 9.75 7.55109 9.75 7.75C9.75 7.94891 9.82902 8.13968 9.96967 8.28033C10.1103 8.42098 10.3011 8.5 10.5 8.5H13.5C13.6989 8.5 13.8897 8.42098 14.0303 8.28033C14.171 8.13968 14.25 7.94891 14.25 7.75Z" fill="#717C8F" fill-opacity="0.8"/>
</svg>
