<svg width="16" height="16" viewBox="0 0 16 16" fill="none" xmlns="http://www.w3.org/2000/svg">
<path d="M2.66797 6.66683C2.66797 4.15283 2.66797 2.8955 3.4493 2.11483C4.23064 1.33416 5.4873 1.3335 8.0013 1.3335C10.5153 1.3335 11.7726 1.3335 12.5533 2.11483C13.334 2.89616 13.3346 4.15283 13.3346 6.66683V8.00016C13.3346 10.5142 13.3346 11.7715 12.5533 12.5522C11.772 13.3328 10.5153 13.3335 8.0013 13.3335C5.4873 13.3335 4.22997 13.3335 3.4493 12.5522C2.66864 11.7708 2.66797 10.5142 2.66797 8.00016V6.66683Z" stroke="#1F6FEB" stroke-opacity="0.8" stroke-width="1.125"/>
<path d="M10.334 10.6667H11.334M4.66732 10.6667H5.66732M4.00065 13V14C4.00065 14.1768 4.07089 14.3464 4.19591 14.4714C4.32094 14.5964 4.49051 14.6667 4.66732 14.6667H5.66732C5.84413 14.6667 6.0137 14.5964 6.13872 14.4714C6.26375 14.3464 6.33398 14.1768 6.33398 14V13.3333M12.0007 13V14C12.0007 14.1768 11.9304 14.3464 11.8054 14.4714C11.6804 14.5964 11.5108 14.6667 11.334 14.6667H10.334C10.1572 14.6667 9.9876 14.5964 9.86258 14.4714C9.73756 14.3464 9.66732 14.1768 9.66732 14V13.3333M13.334 6H14.0007C14.1775 6 14.347 6.07024 14.4721 6.19526C14.5971 6.32029 14.6673 6.48986 14.6673 6.66667V7.33333C14.6673 7.43683 14.6432 7.53891 14.5969 7.63148C14.5506 7.72405 14.4834 7.80457 14.4007 7.86667L13.334 8.66667H2.66732L1.60065 7.86667C1.51785 7.80457 1.45065 7.72405 1.40437 7.63148C1.35808 7.53891 1.33398 7.43683 1.33398 7.33333V6.66667C1.33398 6.48986 1.40422 6.32029 1.52925 6.19526C1.65427 6.07024 1.82384 6 2.00065 6H2.66732" stroke="#1F6FEB" stroke-opacity="0.8" stroke-width="1.125" stroke-linecap="round" stroke-linejoin="round"/>
<path d="M13 3.3335H3" stroke="#1F6FEB" stroke-opacity="0.8" stroke-width="1.125" stroke-linecap="round"/>
</svg>
