<svg width="24" height="24" viewBox="0 0 24 24" fill="none" xmlns="http://www.w3.org/2000/svg">
<path d="M6.70978 9.31002C6.80229 9.21732 6.91218 9.14377 7.03315 9.09359C7.15413 9.04341 7.28381 9.01758 7.41478 9.01758C7.54575 9.01758 7.67543 9.04341 7.7964 9.09359C7.91738 9.14377 8.02726 9.21732 8.11978 9.31002L11.9998 13.19L15.8798 9.31002C16.0668 9.12304 16.3204 9.018 16.5848 9.018C16.8492 9.018 17.1028 9.12304 17.2898 9.31002C17.4768 9.497 17.5818 9.7506 17.5818 10.015C17.5818 10.2794 17.4768 10.533 17.2898 10.72L12.6998 15.31C12.6073 15.4027 12.4974 15.4763 12.3764 15.5265C12.2554 15.5766 12.1257 15.6025 11.9948 15.6025C11.8638 15.6025 11.7341 15.5766 11.6132 15.5265C11.4922 15.4763 11.3823 15.4027 11.2898 15.31L6.69978 10.72C6.31978 10.34 6.31978 9.70002 6.70978 9.31002Z" fill="#2E3A45" fill-opacity="0.8"/>
</svg>
