<svg width="24" height="24" viewBox="0 0 24 24" fill="none" xmlns="http://www.w3.org/2000/svg">
<path d="M6.71002 14.69C6.80254 14.7827 6.91242 14.8562 7.0334 14.9064C7.15437 14.9566 7.28405 14.9824 7.41502 14.9824C7.54599 14.9824 7.67567 14.9566 7.79665 14.9064C7.91762 14.8562 8.02751 14.7827 8.12002 14.69L12 10.81L15.88 14.69C16.067 14.877 16.3206 14.982 16.585 14.982C16.8494 14.982 17.103 14.877 17.29 14.69C17.477 14.503 17.582 14.2494 17.582 13.985C17.582 13.7206 17.477 13.467 17.29 13.28L12.7 8.68998C12.6075 8.59727 12.4976 8.52373 12.3766 8.47355C12.2557 8.42336 12.126 8.39753 11.995 8.39753C11.8641 8.39753 11.7344 8.42336 11.6134 8.47355C11.4924 8.52373 11.3825 8.59727 11.29 8.68998L6.70002 13.28C6.32002 13.66 6.32002 14.3 6.71002 14.69Z" fill="#717C8F" fill-opacity="0.8"/>
</svg>
