<svg width="16" height="16" viewBox="0 0 16 16" fill="none" xmlns="http://www.w3.org/2000/svg">
<path d="M9.536 3.22957L11.4373 5.13091M4.66667 4.66691H2.66667C2.48986 4.66691 2.32029 4.73715 2.19526 4.86217C2.07024 4.98719 2 5.15676 2 5.33357V12.0002C2 12.1771 2.07024 12.3466 2.19526 12.4716C2.32029 12.5967 2.48986 12.6669 2.66667 12.6669H10C10.1768 12.6669 10.3464 12.5967 10.4714 12.4716C10.5964 12.3466 10.6667 12.1771 10.6667 12.0002V9.00024M12.2727 2.39357C12.3976 2.51844 12.4967 2.6667 12.5643 2.82988C12.6319 2.99305 12.6667 3.16795 12.6667 3.34457C12.6667 3.5212 12.6319 3.6961 12.5643 3.85927C12.4967 4.02245 12.3976 4.1707 12.2727 4.29557L7.71 8.85824L5.33333 9.33357L5.80867 6.95691L10.3713 2.39424C10.4961 2.26926 10.6443 2.17012 10.8074 2.10247C10.9705 2.03482 11.1454 2 11.322 2C11.4986 2 11.6735 2.03482 11.8366 2.10247C11.9997 2.17012 12.1479 2.26926 12.2727 2.39424V2.39357Z" stroke="#146CF9" stroke-width="1.33333" stroke-linecap="round" stroke-linejoin="round"/>
</svg>
