<svg width="36" height="36" viewBox="0 0 36 36" fill="none" xmlns="http://www.w3.org/2000/svg">
<rect width="36" height="36" rx="4" fill="#F6C90E"/>
<path d="M18 19.5C19.6545 19.5 21 18.1545 21 16.5C21 14.8455 19.6545 13.5 18 13.5C16.3455 13.5 15 14.8455 15 16.5C15 18.1545 16.3455 19.5 18 19.5ZM18 15C18.8273 15 19.5 15.6727 19.5 16.5C19.5 17.3273 18.8273 18 18 18C17.1727 18 16.5 17.3273 16.5 16.5C16.5 15.6727 17.1727 15 18 15Z" fill="white"/>
<path d="M17.5651 25.3605C17.6921 25.4509 17.8441 25.4995 18.0001 25.4995C18.156 25.4995 18.308 25.4509 18.4351 25.3605C18.6631 25.1992 24.0218 21.33 24.0001 16.5C24.0001 13.1918 21.3083 10.5 18.0001 10.5C14.6918 10.5 12.0001 13.1917 12.0001 16.4963C11.9783 21.33 17.3371 25.1992 17.5651 25.3605ZM18.0001 12C20.4818 12 22.5001 14.0183 22.5001 16.5037C22.5158 19.8323 19.2091 22.821 18.0001 23.8013C16.7918 22.8203 13.4843 19.8307 13.5001 16.5C13.5001 14.0182 15.5183 12 18.0001 12Z" fill="white"/>
</svg>
