<svg width="20" height="20" viewBox="0 0 20 20" fill="none" xmlns="http://www.w3.org/2000/svg">
<g clip-path="url(#clip0_462_2195)">
<mask id="mask0_462_2195" style="mask-type:luminance" maskUnits="userSpaceOnUse" x="0" y="0" width="20" height="20">
<path d="M0 0H20V20H0V0Z" fill="white"/>
</mask>
<g mask="url(#mask0_462_2195)">
<mask id="mask1_462_2195" style="mask-type:luminance" maskUnits="userSpaceOnUse" x="0" y="0" width="20" height="20">
<path d="M0 0H20V20H0V0Z" fill="white"/>
</mask>
<g mask="url(#mask1_462_2195)">
<path d="M16.5625 3.75H3.4375C2.57456 3.75 1.875 4.44956 1.875 5.3125V14.6875C1.875 15.5504 2.57456 16.25 3.4375 16.25H16.5625C17.4254 16.25 18.125 15.5504 18.125 14.6875V5.3125C18.125 4.44956 17.4254 3.75 16.5625 3.75Z" stroke="#2E3A45" stroke-opacity="0.2" stroke-width="1.25" stroke-linejoin="round"/>
<path fill-rule="evenodd" clip-rule="evenodd" d="M3.88168 5.86631C3.66977 6.13878 3.71885 6.53146 3.99131 6.74337L9.61632 11.1184C9.64356 11.1396 9.67235 11.1584 9.7027 11.1748C9.73305 11.1912 9.76455 11.205 9.79719 11.2162C9.82983 11.2274 9.86317 11.2358 9.89721 11.2415C9.93125 11.2472 9.96552 11.25 10 11.25C10.0345 11.25 10.0688 11.2472 10.1028 11.2415C10.1369 11.2358 10.1702 11.2274 10.2029 11.2162C10.2355 11.205 10.267 11.1912 10.2974 11.1748C10.3277 11.1584 10.3565 11.1396 10.3837 11.1184L16.0087 6.74337C16.2812 6.53146 16.3303 6.13878 16.1183 5.86631C15.9064 5.59385 15.5138 5.54477 15.2413 5.75668L10 9.83324L4.75874 5.75668C4.48628 5.54477 4.0936 5.59385 3.88168 5.86631Z" fill="#2E3A45" fill-opacity="0.2"/>
</g>
</g>
</g>
<defs>
<clipPath id="clip0_462_2195">
<rect width="20" height="20" fill="white"/>
</clipPath>
</defs>
</svg>
