<svg width="16" height="16" viewBox="0 0 16 16" fill="none" xmlns="http://www.w3.org/2000/svg">
<path fill-rule="evenodd" clip-rule="evenodd" d="M14.4999 8.00018L14.9149 7.79218V7.79018L14.9119 7.78718L14.9059 7.77518L14.8849 7.73518L14.8049 7.59118C14.7073 7.42278 14.6035 7.258 14.4939 7.09718C14.128 6.56013 13.7074 6.06246 13.2389 5.61218C12.1129 4.53218 10.3799 3.43018 7.99989 3.43018C5.62189 3.43018 3.88789 4.53118 2.76189 5.61218C2.29335 6.06246 1.87277 6.56013 1.50689 7.09718C1.35843 7.31622 1.22092 7.5425 1.09489 7.77518L1.08889 7.78718L1.08689 7.79018V7.79118C1.08689 7.79118 1.08589 7.79218 1.50089 8.00018L1.08589 7.79118C1.0538 7.856 1.03711 7.92735 1.03711 7.99968C1.03711 8.072 1.0538 8.14335 1.08589 8.20818L1.08489 8.21018L1.08789 8.21318L1.09389 8.22518C1.12507 8.28765 1.15842 8.34903 1.19389 8.40918C1.62449 9.13659 2.15124 9.80259 2.75989 10.3892C3.88689 11.4692 5.61989 12.5692 7.99989 12.5692C10.3789 12.5692 12.1129 11.4692 13.2399 10.3882C13.7076 9.93735 14.1278 9.43975 14.4939 8.90318C14.6341 8.69672 14.7646 8.48382 14.8849 8.26518L14.9059 8.22518L14.9119 8.21318L14.9139 8.21018V8.20918C14.9139 8.20918 14.9149 8.20818 14.4999 8.00018ZM14.4999 8.00018L14.9149 8.20918C14.947 8.14435 14.9637 8.073 14.9637 8.00068C14.9637 7.92835 14.947 7.857 14.9149 7.79218L14.4999 8.00018ZM7.93989 6.46418C7.53252 6.46418 7.14183 6.626 6.85377 6.91406C6.56572 7.20212 6.40389 7.5928 6.40389 8.00018C6.40389 8.40755 6.56572 8.79824 6.85377 9.08629C7.14183 9.37435 7.53252 9.53618 7.93989 9.53618C8.34726 9.53618 8.73795 9.37435 9.026 9.08629C9.31406 8.79824 9.47589 8.40755 9.47589 8.00018C9.47589 7.5928 9.31406 7.20212 9.026 6.91406C8.73795 6.626 8.34726 6.46418 7.93989 6.46418ZM5.47789 8.00018C5.47789 7.34668 5.73749 6.71995 6.19958 6.25786C6.66167 5.79578 7.28839 5.53618 7.94189 5.53618C8.59538 5.53618 9.22211 5.79578 9.6842 6.25786C10.1463 6.71995 10.4059 7.34668 10.4059 8.00018C10.4059 8.65367 10.1463 9.2804 9.6842 9.74249C9.22211 10.2046 8.59538 10.4642 7.94189 10.4642C7.28839 10.4642 6.66167 10.2046 6.19958 9.74249C5.73749 9.2804 5.47789 8.65367 5.47789 8.00018Z" fill="#146CF9"/>
</svg>
