<svg width="18" height="18" viewBox="0 0 18 18" fill="none" xmlns="http://www.w3.org/2000/svg">
<path d="M6.75015 14.91C6.72015 15.135 6.79515 15.375 6.96765 15.5325C7.03703 15.602 7.11945 15.6572 7.21018 15.6948C7.30091 15.7325 7.39817 15.7518 7.4964 15.7518C7.59462 15.7518 7.69188 15.7325 7.78261 15.6948C7.87334 15.6572 7.95576 15.602 8.02515 15.5325L11.0326 12.525C11.1144 12.445 11.1766 12.3472 11.2143 12.2392C11.252 12.1312 11.2643 12.016 11.2501 11.9025V8.0625L14.8426 3.465C14.9644 3.30865 15.0194 3.11044 14.9955 2.9137C14.9716 2.71695 14.8708 2.53766 14.7151 2.415C14.5726 2.31 14.4151 2.25 14.2501 2.25H3.75015C3.58515 2.25 3.42765 2.31 3.28515 2.415C3.12947 2.53766 3.02868 2.71695 3.00479 2.9137C2.9809 3.11044 3.03585 3.30865 3.15765 3.465L6.75015 8.0625V14.91ZM12.7201 3.75L9.75015 7.545V11.685L8.25015 13.185V7.5375L5.28015 3.75H12.7201Z" fill="#2E3A45"/>
</svg>
