<svg width="20" height="20" viewBox="0 0 20 20" fill="none" xmlns="http://www.w3.org/2000/svg">
<g clip-path="url(#clip0_462_2211)">
<mask id="mask0_462_2211" style="mask-type:luminance" maskUnits="userSpaceOnUse" x="0" y="0" width="20" height="20">
<path d="M0 0H20V20H0V0Z" fill="white"/>
</mask>
<g mask="url(#mask0_462_2211)">
<mask id="mask1_462_2211" style="mask-type:luminance" maskUnits="userSpaceOnUse" x="0" y="0" width="20" height="20">
<path d="M0 0H20V20H0V0Z" fill="white"/>
</mask>
<g mask="url(#mask1_462_2211)">
<path fill-rule="evenodd" clip-rule="evenodd" d="M12.5 4.41406V8.125C12.5 8.47017 12.7798 8.75 13.125 8.75C13.4702 8.75 13.75 8.47017 13.75 8.125V4.41406C13.75 3.37853 13.3839 2.49465 12.6516 1.76241C11.9194 1.03018 11.0355 0.664062 10 0.664062C8.96447 0.664062 8.08058 1.03018 7.34835 1.76241C6.61612 2.49465 6.25 3.37853 6.25 4.41406V8.125C6.25 8.47017 6.52983 8.75 6.875 8.75C7.22018 8.75 7.5 8.47017 7.5 8.125V4.41406C7.5 3.72371 7.74408 3.13445 8.23223 2.64629C8.72039 2.15814 9.30965 1.91406 10 1.91406C10.6904 1.91406 11.2796 2.15814 11.7678 2.64629C12.2559 3.13445 12.5 3.72371 12.5 4.41406Z" fill="#2E3A45" fill-opacity="0.2"/>
<path d="M14.375 8.125H5.625C4.58947 8.125 3.75 8.96447 3.75 10V16.875C3.75 17.9105 4.58947 18.75 5.625 18.75H14.375C15.4105 18.75 16.25 17.9105 16.25 16.875V10C16.25 8.96447 15.4105 8.125 14.375 8.125Z" stroke="#2E3A45" stroke-opacity="0.2" stroke-width="1.25" stroke-linejoin="round"/>
</g>
</g>
</g>
<defs>
<clipPath id="clip0_462_2211">
<rect width="20" height="20" fill="white"/>
</clipPath>
</defs>
</svg>
