<svg width="46" height="46" viewBox="0 0 46 46" fill="none" xmlns="http://www.w3.org/2000/svg">
<rect width="46" height="46" rx="6" fill="#3A86FF" fill-opacity="0.2"/>
<path d="M25.9167 27.271L30.0417 23.146C30.1944 22.9932 30.3889 22.9168 30.625 22.9168C30.8611 22.9168 31.0556 22.9932 31.2083 23.146C31.3611 23.2988 31.4375 23.4932 31.4375 23.7293C31.4375 23.9654 31.3611 24.1599 31.2083 24.3127L26.5 29.021C26.3333 29.1877 26.1389 29.271 25.9167 29.271C25.6944 29.271 25.5 29.1877 25.3333 29.021L22.9583 26.646C22.8056 26.4932 22.7292 26.2988 22.7292 26.0627C22.7292 25.8266 22.8056 25.6321 22.9583 25.4793C23.1111 25.3266 23.3056 25.2502 23.5417 25.2502C23.7778 25.2502 23.9722 25.3266 24.125 25.4793L25.9167 27.271ZM17.1667 30.5002C16.7083 30.5002 16.3161 30.3371 15.99 30.011C15.6639 29.6849 15.5006 29.2924 15.5 28.8335V17.1668C15.5 16.7085 15.6633 16.3163 15.99 15.9902C16.3167 15.6641 16.7089 15.5007 17.1667 15.5002H20.6458C20.7986 15.0141 21.0972 14.6149 21.5417 14.3027C21.9861 13.9904 22.4722 13.8341 23 13.8335C23.5556 13.8335 24.0522 13.9899 24.49 14.3027C24.9278 14.6154 25.2228 15.0146 25.375 15.5002H28.8333C29.2917 15.5002 29.6842 15.6635 30.0108 15.9902C30.3375 16.3168 30.5006 16.7091 30.5 17.1668V20.5002C30.5 20.7363 30.42 20.9343 30.26 21.0943C30.1 21.2543 29.9022 21.3341 29.6667 21.3335C29.4311 21.3329 29.2333 21.2529 29.0733 21.0935C28.9133 20.9341 28.8333 20.7363 28.8333 20.5002V17.1668H27.1667V18.8335C27.1667 19.0696 27.0867 19.2677 26.9267 19.4277C26.7667 19.5877 26.5689 19.6674 26.3333 19.6668H19.6667C19.4306 19.6668 19.2328 19.5868 19.0733 19.4268C18.9139 19.2668 18.8339 19.0691 18.8333 18.8335V17.1668H17.1667V28.8335H21.3333C21.5694 28.8335 21.7675 28.9135 21.9275 29.0735C22.0875 29.2335 22.1672 29.4313 22.1667 29.6668C22.1661 29.9024 22.0861 30.1004 21.9267 30.261C21.7672 30.4216 21.5694 30.5013 21.3333 30.5002H17.1667ZM23 17.1668C23.2361 17.1668 23.4342 17.0868 23.5942 16.9268C23.7542 16.7668 23.8339 16.5691 23.8333 16.3335C23.8328 16.0979 23.7528 15.9002 23.5933 15.7402C23.4339 15.5802 23.2361 15.5002 23 15.5002C22.7639 15.5002 22.5661 15.5802 22.4067 15.7402C22.2472 15.9002 22.1672 16.0979 22.1667 16.3335C22.1661 16.5691 22.2461 16.7671 22.4067 16.9277C22.5672 17.0882 22.765 17.1679 23 17.1668Z" fill="#3A86FF"/>
</svg>
