<svg width="18" height="18" viewBox="0 0 18 18" fill="none" xmlns="http://www.w3.org/2000/svg">
<path fill-rule="evenodd" clip-rule="evenodd" d="M13.6995 3.60796L13.6189 3H11.7327L11.6518 3.60757L11.6015 3.98399L11.5024 4.04126L11.4137 4.09976L11.0801 3.95776L10.5424 3.72907L10.2521 4.25905L9.89125 4.91791L9.60043 5.44881L10.0575 5.82709L10.3399 6.0607L10.339 6.07164C10.3373 6.10655 10.3365 6.14149 10.3365 6.17644L10.339 6.28039L10.3405 6.29505L10.0576 6.52951L9.60022 6.90776L9.8911 7.43879L10.2522 8.09801L10.5424 8.62792L11.0801 8.39933L11.413 8.25741L11.5056 8.31858L11.6015 8.37318L11.651 8.74502L11.7316 9.35291H13.6177L13.6986 8.74537L13.7484 8.36822L13.848 8.31169L13.9361 8.25245L14.2703 8.39511L14.808 8.62381L15.0983 8.09382L15.4592 7.435L15.75 6.9041L15.2929 6.52582L15.0106 6.29221L15.0114 6.28127C15.0131 6.24588 15.0139 6.21094 15.0139 6.17644L15.0114 6.07252L15.01 6.05645L15.293 5.82301L15.75 5.44473L15.4592 4.91387L15.0982 4.25487L14.808 3.72499L14.2704 3.95358L13.9368 4.0948L13.8448 4.0343L13.7484 3.97903L13.6995 3.60796ZM12.7408 7.58821C13.4789 7.58821 14.0772 6.95613 14.0772 6.17644C14.0772 5.39674 13.4789 4.7647 12.7408 4.7647C12.0027 4.7647 11.4044 5.39674 11.4044 6.17644C11.4044 6.95613 12.0027 7.58821 12.7408 7.58821ZM6.34925 9.25504L6.26864 8.64704H4.38244L4.30154 9.25458L4.25116 9.63103L4.15216 9.6883L4.06339 9.7468L3.7298 9.60484L3.19215 9.37615L2.90187 9.90613L2.54095 10.565L2.25014 11.0959L2.70717 11.4742L2.98958 11.7077L2.98877 11.7187C2.98709 11.7536 2.98624 11.7886 2.98621 11.8235L2.9887 11.9274L2.99029 11.9421L2.70728 12.1766L2.25 12.5548L2.54085 13.0858L2.9019 13.7451L3.19215 14.275L3.72976 14.0464L4.06273 13.9044L4.15533 13.9657L4.25116 14.0202L4.30073 14.3921L4.38138 15H6.26745L6.34834 14.3924L6.39812 14.0153L6.49772 13.9587L6.58589 13.8995L6.92009 14.0422L7.45773 14.2709L7.74802 13.7409L8.10893 13.082L8.39974 12.5511L7.94268 12.1729L7.66037 11.9393L7.66111 11.9284C7.6628 11.8929 7.66365 11.858 7.66368 11.8235L7.66118 11.7196L7.6597 11.7035L7.94275 11.4701L8.39974 11.0918L8.10893 10.561L7.74798 9.90195L7.45773 9.37204L6.92012 9.60062L6.58656 9.74188L6.49455 9.68137L6.39812 9.62611L6.34925 9.25504ZM5.39054 13.2353C6.12861 13.2353 6.72694 12.6032 6.72694 11.8235C6.72694 11.0438 6.12861 10.4117 5.39054 10.4117C4.65244 10.4117 4.05411 11.0438 4.05411 11.8235C4.05411 12.6032 4.65244 13.2353 5.39054 13.2353ZM15.75 13.5H9V15H15.75V13.5ZM2.25 3H9V4.49998H2.25V3ZM9 7.49996H7.49999V8.99998H9V7.49996Z" fill="#0A2540" fill-opacity="0.4"/>
</svg>
