<svg width="14" height="14" viewBox="0 0 14 14" fill="none" xmlns="http://www.w3.org/2000/svg">
<path d="M6.99984 1.1665C10.2216 1.1665 12.8332 3.77809 12.8332 6.99984C12.8332 10.2216 10.2216 12.8332 6.99984 12.8332C3.77809 12.8332 1.1665 10.2216 1.1665 6.99984C1.1665 3.77809 3.77809 1.1665 6.99984 1.1665ZM6.99984 2.33317C5.76216 2.33317 4.57518 2.82484 3.70001 3.70001C2.82484 4.57518 2.33317 5.76216 2.33317 6.99984C2.33317 8.23751 2.82484 9.4245 3.70001 10.2997C4.57518 11.1748 5.76216 11.6665 6.99984 11.6665C8.23751 11.6665 9.4245 11.1748 10.2997 10.2997C11.1748 9.4245 11.6665 8.23751 11.6665 6.99984C11.6665 5.76216 11.1748 4.57518 10.2997 3.70001C9.4245 2.82484 8.23751 2.33317 6.99984 2.33317ZM6.99984 3.49984C7.14272 3.49986 7.28062 3.55231 7.38739 3.64725C7.49416 3.7422 7.56237 3.87302 7.57909 4.01492L7.58317 4.08317V6.75834L9.16225 8.33742C9.26687 8.4424 9.32761 8.58326 9.33214 8.73139C9.33666 8.87953 9.28463 9.02384 9.18661 9.135C9.08859 9.24616 8.95193 9.31585 8.80439 9.3299C8.65686 9.34396 8.5095 9.30133 8.39225 9.21067L8.33742 9.16225L6.58742 7.41225C6.49676 7.32151 6.43853 7.20342 6.42175 7.07625L6.4165 6.99984V4.08317C6.4165 3.92846 6.47796 3.78009 6.58736 3.67069C6.69675 3.5613 6.84513 3.49984 6.99984 3.49984Z" fill="#F6C90E"/>
</svg>
