<svg width="20" height="20" viewBox="0 0 20 20" fill="none" xmlns="http://www.w3.org/2000/svg">
<path fill-rule="evenodd" clip-rule="evenodd" d="M4.7772 1.70252C5.79136 0.69419 7.46136 0.873357 8.31053 2.00836L9.3622 3.41169C10.0539 4.33502 9.9922 5.62502 9.17136 6.44086L8.97303 6.63919C8.95054 6.72245 8.94826 6.80987 8.96636 6.89419C9.01886 7.23419 9.30303 7.95419 10.493 9.13752C11.683 10.3209 12.408 10.6042 12.753 10.6575C12.84 10.675 12.9297 10.6724 13.0155 10.65L13.3555 10.3117C14.0855 9.58669 15.2055 9.45086 16.1089 9.94169L17.7005 10.8084C19.0647 11.5484 19.4089 13.4017 18.2922 14.5125L17.108 15.6892C16.7347 16.06 16.233 16.3692 15.6214 16.4267C14.113 16.5675 10.5989 16.3875 6.9047 12.715C3.4572 9.28669 2.79553 6.29669 2.71136 4.82336C2.6697 4.07836 3.02136 3.44836 3.4697 3.00336L4.7772 1.70252ZM7.31053 2.75752C6.88803 2.19336 6.10136 2.14836 5.65803 2.58919L4.3497 3.88919C4.0747 4.16252 3.94303 4.46419 3.9597 4.75252C4.02636 5.92336 4.5597 8.62086 7.78636 11.8292C11.1714 15.1942 14.2972 15.295 15.5055 15.1817C15.7522 15.1592 15.9972 15.0309 16.2264 14.8034L17.4097 13.6259C17.8914 13.1475 17.7855 12.2759 17.1039 11.9059L15.5122 11.04C15.0722 10.8017 14.5572 10.88 14.2372 11.1984L13.858 11.5759L13.4164 11.1325C13.858 11.5759 13.8572 11.5767 13.8564 11.5767L13.8555 11.5784L13.853 11.5809L13.8472 11.5859L13.8347 11.5975C13.7995 11.6302 13.7616 11.6597 13.7214 11.6859C13.6547 11.73 13.5664 11.7792 13.4555 11.82C13.2305 11.9042 12.9322 11.9492 12.5639 11.8925C11.8414 11.7817 10.8839 11.2892 9.61136 10.0242C8.3397 8.75919 7.84303 7.80752 7.73136 7.08586C7.67386 6.71752 7.7197 6.41919 7.8047 6.19419C7.85148 6.06758 7.91846 5.94938 8.00303 5.84419L8.0297 5.81502L8.04136 5.80252L8.04636 5.79752L8.04886 5.79502L8.05053 5.79336L8.29053 5.55502C8.6472 5.19919 8.6972 4.61002 8.36136 4.16086L7.31053 2.75752Z" fill="#2E3A45" fill-opacity="0.2"/>
</svg>
