<svg width="16" height="16" viewBox="0 0 16 16" fill="none" xmlns="http://www.w3.org/2000/svg">
<path d="M8.3873 1.79057C8.27426 1.70988 8.13885 1.6665 7.99996 1.6665C7.86108 1.6665 7.72567 1.70988 7.61263 1.79057L1.2793 6.31457L2.05396 7.39923L7.99996 3.15323L13.946 7.3999L14.7206 6.31523L8.3873 1.79057ZM13.054 8.45723L8.3873 5.1239C8.27426 5.04321 8.13885 4.99984 7.99996 4.99984C7.86108 4.99984 7.72567 5.04321 7.61263 5.1239L2.94596 8.45723C2.85944 8.51884 2.78888 8.60023 2.74018 8.69462C2.69147 8.78902 2.66603 8.89368 2.66596 8.9999V13.3332C2.66596 13.51 2.7362 13.6796 2.86123 13.8046C2.98625 13.9297 3.15582 13.9999 3.33263 13.9999H12.666C12.8428 13.9999 13.0123 13.9297 13.1374 13.8046C13.2624 13.6796 13.3326 13.51 13.3326 13.3332V8.9999C13.3327 8.8938 13.3075 8.78921 13.259 8.69482C13.2105 8.60044 13.1402 8.51899 13.054 8.45723ZM3.99996 12.6666V9.34323L7.99996 6.4859L12 9.34323V12.6666H3.99996Z" fill="#1F6FEB"/>
</svg>
