<svg width="16" height="16" viewBox="0 0 16 16" fill="none" xmlns="http://www.w3.org/2000/svg">
<path d="M7.33338 8.66683H4.00004C3.81115 8.66683 3.65293 8.60283 3.52538 8.47483C3.39782 8.34683 3.33382 8.18861 3.33338 8.00016C3.33293 7.81172 3.39693 7.6535 3.52538 7.5255C3.65382 7.3975 3.81204 7.3335 4.00004 7.3335H7.33338V4.00017C7.33338 3.81128 7.39738 3.65305 7.52538 3.5255C7.65338 3.39794 7.8116 3.33394 8.00004 3.3335C8.18849 3.33305 8.34693 3.39705 8.47538 3.5255C8.60382 3.65394 8.6676 3.81217 8.66671 4.00017V7.3335H12C12.1889 7.3335 12.3474 7.3975 12.4754 7.5255C12.6034 7.6535 12.6672 7.81172 12.6667 8.00016C12.6663 8.18861 12.6023 8.34705 12.4747 8.4755C12.3472 8.60394 12.1889 8.66772 12 8.66683H8.66671V12.0002C8.66671 12.1891 8.60271 12.3475 8.47471 12.4755C8.34671 12.6035 8.18849 12.6673 8.00004 12.6668C7.8116 12.6664 7.65338 12.6024 7.52538 12.4748C7.39738 12.3473 7.33338 12.1891 7.33338 12.0002V8.66683Z" fill="#0A2540" fill-opacity="0.4"/>
</svg>
