<svg width="16" height="16" viewBox="0 0 16 16" fill="none" xmlns="http://www.w3.org/2000/svg">
<path d="M2.66663 11.9999C2.66663 11.2927 2.94758 10.6144 3.44767 10.1143C3.94777 9.6142 4.62605 9.33325 5.33329 9.33325H10.6666C11.3739 9.33325 12.0521 9.6142 12.5522 10.1143C13.0523 10.6144 13.3333 11.2927 13.3333 11.9999C13.3333 12.3535 13.1928 12.6927 12.9428 12.9427C12.6927 13.1928 12.3536 13.3333 12 13.3333H3.99996C3.64634 13.3333 3.3072 13.1928 3.05715 12.9427C2.8071 12.6927 2.66663 12.3535 2.66663 11.9999Z" stroke="#0A2540" stroke-opacity="0.4" stroke-width="1.33333" stroke-linejoin="round"/>
<path d="M8 6.66663C9.10457 6.66663 10 5.7712 10 4.66663C10 3.56206 9.10457 2.66663 8 2.66663C6.89543 2.66663 6 3.56206 6 4.66663C6 5.7712 6.89543 6.66663 8 6.66663Z" stroke="#0A2540" stroke-opacity="0.4" stroke-width="1.33333"/>
</svg>
