<svg width="18" height="18" viewBox="0 0 18 18" fill="none" xmlns="http://www.w3.org/2000/svg">
<path d="M9 10.05L11.175 12.225C11.3125 12.3625 11.4875 12.4313 11.7 12.4313C11.9125 12.4313 12.0875 12.3625 12.225 12.225C12.3625 12.0875 12.4313 11.9125 12.4313 11.7C12.4313 11.4875 12.3625 11.3125 12.225 11.175L10.05 9L12.225 6.825C12.3625 6.6875 12.4313 6.5125 12.4313 6.3C12.4313 6.0875 12.3625 5.9125 12.225 5.775C12.0875 5.6375 11.9125 5.56875 11.7 5.56875C11.4875 5.56875 11.3125 5.6375 11.175 5.775L9 7.95L6.825 5.775C6.6875 5.6375 6.5125 5.56875 6.3 5.56875C6.0875 5.56875 5.9125 5.6375 5.775 5.775C5.6375 5.9125 5.56875 6.0875 5.56875 6.3C5.56875 6.5125 5.6375 6.6875 5.775 6.825L7.95 9L5.775 11.175C5.6375 11.3125 5.56875 11.4875 5.56875 11.7C5.56875 11.9125 5.6375 12.0875 5.775 12.225C5.9125 12.3625 6.0875 12.4313 6.3 12.4313C6.5125 12.4313 6.6875 12.3625 6.825 12.225L9 10.05ZM9 16.5C7.9625 16.5 6.9875 16.303 6.075 15.909C5.1625 15.515 4.36875 14.9808 3.69375 14.3063C3.01875 13.6318 2.4845 12.838 2.091 11.925C1.6975 11.012 1.5005 10.037 1.5 9C1.4995 7.963 1.6965 6.988 2.091 6.075C2.4855 5.162 3.01975 4.36825 3.69375 3.69375C4.36775 3.01925 5.1615 2.485 6.075 2.091C6.9885 1.697 7.9635 1.5 9 1.5C10.0365 1.5 11.0115 1.697 11.925 2.091C12.8385 2.485 13.6323 3.01925 14.3063 3.69375C14.9803 4.36825 15.5148 5.162 15.9098 6.075C16.3048 6.988 16.5015 7.963 16.5 9C16.4985 10.037 16.3015 11.012 15.909 11.925C15.5165 12.838 14.9823 13.6318 14.3063 14.3063C13.6303 14.9808 12.8365 15.5152 11.925 15.9097C11.0135 16.3042 10.0385 16.501 9 16.5ZM9 15C10.675 15 12.0938 14.4187 13.2563 13.2562C14.4187 12.0937 15 10.675 15 9C15 7.325 14.4187 5.90625 13.2563 4.74375C12.0938 3.58125 10.675 3 9 3C7.325 3 5.90625 3.58125 4.74375 4.74375C3.58125 5.90625 3 7.325 3 9C3 10.675 3.58125 12.0937 4.74375 13.2562C5.90625 14.4187 7.325 15 9 15Z" fill="#EF5350"/>
</svg>
