<svg width="36" height="36" viewBox="0 0 36 36" fill="none" xmlns="http://www.w3.org/2000/svg">
<rect width="36" height="36" rx="6" fill="#F6C90E" fill-opacity="0.18"/>
<path d="M18 10.5C22.1423 10.5 25.5 13.8578 25.5 18C25.5 22.1423 22.1423 25.5 18 25.5C13.8578 25.5 10.5 22.1423 10.5 18C10.5 13.8578 13.8578 10.5 18 10.5ZM18 12C16.4087 12 14.8826 12.6321 13.7574 13.7574C12.6321 14.8826 12 16.4087 12 18C12 19.5913 12.6321 21.1174 13.7574 22.2426C14.8826 23.3679 16.4087 24 18 24C19.5913 24 21.1174 23.3679 22.2426 22.2426C23.3679 21.1174 24 19.5913 24 18C24 16.4087 23.3679 14.8826 22.2426 13.7574C21.1174 12.6321 19.5913 12 18 12ZM18 13.5C18.1837 13.5 18.361 13.5675 18.4983 13.6895C18.6356 13.8116 18.7233 13.9798 18.7448 14.1623L18.75 14.25V17.6895L20.7802 19.7198C20.9148 19.8547 20.9929 20.0358 20.9987 20.2263C21.0045 20.4167 20.9376 20.6023 20.8116 20.7452C20.6855 20.8881 20.5098 20.9777 20.3201 20.9958C20.1305 21.0139 19.941 20.9591 19.7902 20.8425L19.7198 20.7802L17.4698 18.5302C17.3532 18.4136 17.2783 18.2618 17.2568 18.0982L17.25 18V14.25C17.25 14.0511 17.329 13.8603 17.4697 13.7197C17.6103 13.579 17.8011 13.5 18 13.5Z" fill="#F6C90E"/>
</svg>
