<svg width="36" height="36" viewBox="0 0 36 36" fill="none" xmlns="http://www.w3.org/2000/svg">
<rect width="36" height="36" rx="6" fill="#C6C8F1"/>
<g clip-path="url(#clip0_572_3713)">
<path d="M11.7968 15.5858L17.4218 18.9619C17.5964 19.0662 17.7961 19.1212 17.9996 19.121C18.203 19.1208 18.4026 19.0654 18.5771 18.9608L24.2021 15.5869C24.5385 15.3855 24.7489 15.0143 24.7489 14.6217C24.7489 14.229 24.5396 13.86 24.2021 13.6575L18.5816 10.2848C18.4063 10.1803 18.2061 10.1249 18.002 10.1245C17.7979 10.1241 17.5975 10.1787 17.4218 10.2825L11.7968 13.6564C11.6307 13.7572 11.4933 13.8988 11.3976 14.0678C11.3019 14.2368 11.251 14.4275 11.25 14.6217C11.25 15.0143 11.4593 15.3844 11.7968 15.5858ZM18 11.2467L23.625 14.6217L18 17.9967L12.375 14.6217L18 11.2467ZM24.5858 16.857L18 20.8092L11.4142 16.857C11.3083 17.031 11.2515 17.2305 11.25 17.4342C11.25 17.8279 11.4604 18.198 11.7968 18.3983L17.4218 21.7744C17.5966 21.8789 17.7965 21.934 18.0002 21.9338C18.2038 21.9336 18.4036 21.8781 18.5782 21.7733L20.1015 20.8598C20.7853 19.9828 21.7711 19.3917 22.8668 19.2015L24.2032 18.3994C24.5407 18.1969 24.75 17.8268 24.75 17.4342C24.75 17.2283 24.6892 17.0303 24.5858 16.857ZM18 23.6217L11.4142 19.6695C11.3083 19.8435 11.2515 20.043 11.25 20.2467C11.25 20.6404 11.4604 21.0105 11.7968 21.2108L17.4218 24.5869C17.5966 24.6914 17.7965 24.7465 18.0002 24.7463C18.2038 24.7461 18.4036 24.6906 18.5782 24.5858L19.1858 24.2213C19.1588 24.0244 19.125 23.8287 19.125 23.6239C19.125 23.3764 19.1599 23.139 19.1981 22.9017L18 23.6217ZM23.625 20.25C22.7299 20.25 21.8714 20.6056 21.2385 21.2385C20.6056 21.8715 20.25 22.7299 20.25 23.625C20.25 24.5201 20.6056 25.3786 21.2385 26.0115C21.8714 26.6445 22.7299 27 23.625 27C24.5201 27 25.3786 26.6445 26.0115 26.0115C26.6444 25.3786 27 24.5201 27 23.625C27 22.7299 26.6444 21.8715 26.0115 21.2385C25.3786 20.6056 24.5201 20.25 23.625 20.25ZM25.4295 23.1795L23.4608 25.1483C23.4085 25.2007 23.3464 25.2422 23.2781 25.2706C23.2097 25.2989 23.1365 25.3135 23.0625 25.3135C22.9885 25.3135 22.9153 25.2989 22.8469 25.2706C22.7786 25.2422 22.7165 25.2007 22.6642 25.1483L21.5392 24.0233C21.4368 23.9172 21.3801 23.7751 21.3814 23.6276C21.3827 23.4801 21.4418 23.3391 21.5461 23.2348C21.6504 23.1305 21.7915 23.0713 21.939 23.07C22.0864 23.0687 22.2285 23.1254 22.3346 23.2279L23.0614 23.9547L24.6319 22.3842C24.738 22.2817 24.8801 22.225 25.0275 22.2263C25.175 22.2276 25.3161 22.2867 25.4204 22.391C25.5247 22.4953 25.5838 22.6364 25.5851 22.7839C25.5864 22.9314 25.5297 23.0734 25.4272 23.1795H25.4295Z" fill="#9C3FDF"/>
</g>
<defs>
<clipPath id="clip0_572_3713">
<rect width="18" height="18" fill="white" transform="translate(9 9)"/>
</clipPath>
</defs>
</svg>
