<svg width="36" height="36" viewBox="0 0 36 36" fill="none" xmlns="http://www.w3.org/2000/svg">
<rect width="36" height="36" rx="6" fill="#895DF3" fill-opacity="0.2"/>
<path fill-rule="evenodd" clip-rule="evenodd" d="M18 10.5C22.1353 10.5 25.5 13.8647 25.5 18C25.5 22.1353 22.1353 25.5 18 25.5C13.8647 25.5 10.5 22.1353 10.5 18C10.5 13.8647 13.8647 10.5 18 10.5ZM18 12C14.6798 12 12 14.6798 12 18C12 21.3201 14.6798 24 18 24C21.3201 24 24 21.3202 24 18C24 14.6798 21.3202 12 18 12ZM18.0321 14.5587C18.5994 15.2964 18.7908 16.2039 18.609 16.8664C18.5864 16.9754 19.386 17.8256 21.0078 19.4168C21.5381 19.9471 21.5381 20.4775 21.0078 21.0078C20.5087 21.5069 20.0096 21.5363 19.5104 21.0959L16.8783 18.5972C16.2157 18.779 15.3082 18.5876 14.5706 18.0203C14.0295 17.3089 13.843 16.379 13.9937 15.7126L15.1475 16.8664L16.3013 16.2895L16.8783 15.1357L15.7244 13.9818C16.3909 13.8311 17.3208 14.0177 18.0321 14.5587Z" fill="#895DF3"/>
</svg>
