<svg width="36" height="36" viewBox="0 0 36 36" fill="none" xmlns="http://www.w3.org/2000/svg">
<rect width="36" height="36" rx="6" fill="#F6C90E" fill-opacity="0.1"/>
<path d="M17.6265 10.125V26.6287H18.3765V22.878H20.6273V26.6287H25.1287V10.125H17.6265ZM22.128 10.875V12.375H20.628V10.875H22.128ZM22.128 14.6258H20.628V13.1258H22.128V14.6258ZM22.128 16.8765H20.628V15.3765H22.128V16.8765ZM22.128 19.1265H20.628V17.6265H22.128V19.1265ZM22.128 21.3773H20.628V19.8773H22.128V21.3773ZM18.3765 10.875H19.8765V12.375H18.3765V10.875ZM18.3765 13.125H19.8765V14.6258H18.3765V13.125ZM18.3765 15.3765H19.8765V16.8765H18.3765V15.3765ZM18.3765 17.6265H19.8765V19.1265H18.3765V17.6265ZM18.3765 19.8773H19.8765V21.3773H18.3765V19.8773ZM24.378 25.1287H21.378V22.878H24.378V25.1287ZM24.378 21.3773H22.878V19.8773H24.378V21.3773ZM24.378 19.1273H22.878V17.6273H24.378V19.1273ZM24.378 16.8765H22.878V15.3765H24.378V16.8765ZM24.378 14.6265H22.878V13.125H24.378V14.6265ZM24.378 12.3758H22.878V10.8757H24.378V12.3758ZM10.125 15.3758V26.6287H12.375V23.628H14.6258V26.628H16.8765V15.3765L10.125 15.3758ZM10.875 16.1258H13.125V17.6265H10.875V16.1258ZM10.875 18.3765H13.125V19.8765H10.875V18.3765ZM10.875 22.1273V20.6273H13.125V22.1273H10.875ZM16.1265 22.1273H13.8765V20.6273H16.1265V22.1273ZM16.1265 19.8773H13.8765V18.3773H16.1265V19.8773ZM16.1265 17.6273H13.8765V16.1258H16.1265V17.6273Z" fill="#F6C90E"/>
</svg>
