<svg width="36" height="36" viewBox="0 0 36 36" fill="none" xmlns="http://www.w3.org/2000/svg">
<rect width="36" height="36" rx="6" fill="#F6C90E" fill-opacity="0.18"/>
<path d="M13.5 25.5C13.0875 25.5 12.7345 25.3533 12.441 25.0597C12.1475 24.7662 12.0005 24.413 12 24V12C12 11.5875 12.147 11.2345 12.441 10.941C12.735 10.6475 13.088 10.5005 13.5 10.5H22.5C22.9125 10.5 23.2657 10.647 23.5597 10.941C23.8538 11.235 24.0005 11.588 24 12V24C24 24.4125 23.8533 24.7657 23.5597 25.0597C23.2662 25.3538 22.913 25.5005 22.5 25.5H13.5ZM13.5 24H22.5V12H21V17.25L19.125 16.125L17.25 17.25V12H13.5V24Z" fill="#F6C90E"/>
</svg>
