<svg width="34" height="34" viewBox="0 0 34 34" fill="none" xmlns="http://www.w3.org/2000/svg">
<path d="M15.5124 17.9917L13.4582 15.973C13.1985 15.7132 12.8741 15.5834 12.485 15.5834C12.0958 15.5834 11.7591 15.7251 11.4749 16.0084C11.2151 16.2681 11.0853 16.5987 11.0853 17.0001C11.0853 17.4014 11.2151 17.732 11.4749 17.9917L14.5207 21.0376C14.804 21.3209 15.1346 21.4626 15.5124 21.4626C15.8901 21.4626 16.2207 21.3209 16.504 21.0376L22.5249 15.0167C22.8082 14.7334 22.9437 14.4028 22.9315 14.0251C22.9192 13.6473 22.7836 13.3167 22.5249 13.0334C22.2415 12.7501 21.9053 12.6027 21.5162 12.5914C21.1271 12.5801 20.7904 12.7156 20.5061 12.998L15.5124 17.9917ZM11.5457 30.8126L9.49154 27.3417L5.5957 26.4917C5.24154 26.4209 4.9582 26.2381 4.7457 25.9435C4.5332 25.6488 4.45056 25.3239 4.49779 24.9688L4.88737 20.9667L2.23112 17.9209C1.99501 17.6612 1.87695 17.3542 1.87695 17.0001C1.87695 16.6459 1.99501 16.3389 2.23112 16.0792L4.88737 13.0334L4.49779 9.03131C4.45056 8.67714 4.5332 8.35225 4.7457 8.05664C4.9582 7.76103 5.24154 7.57828 5.5957 7.50839L9.49154 6.65839L11.5457 3.18756C11.7346 2.88061 11.9943 2.67378 12.3249 2.56706C12.6554 2.46033 12.986 2.47828 13.3165 2.62089L16.9999 4.17922L20.6832 2.62089C21.0138 2.47922 21.3443 2.46128 21.6749 2.56706C22.0054 2.67283 22.2651 2.87967 22.454 3.18756L24.5082 6.65839L28.404 7.50839C28.7582 7.57922 29.0415 7.76244 29.254 8.05806C29.4665 8.35367 29.5492 8.67808 29.502 9.03131L29.1124 13.0334L31.7686 16.0792C32.0047 16.3389 32.1228 16.6459 32.1228 17.0001C32.1228 17.3542 32.0047 17.6612 31.7686 17.9209L29.1124 20.9667L29.502 24.9688C29.5492 25.323 29.4665 25.6479 29.254 25.9435C29.0415 26.2391 28.7582 26.4218 28.404 26.4917L24.5082 27.3417L22.454 30.8126C22.2651 31.1195 22.0054 31.3263 21.6749 31.4331C21.3443 31.5398 21.0138 31.5218 20.6832 31.3792L16.9999 29.8209L13.3165 31.3792C12.986 31.5209 12.6554 31.5388 12.3249 31.4331C11.9943 31.3273 11.7346 31.1204 11.5457 30.8126Z" fill="#3A86FF"/>
</svg>
