<svg width="36" height="36" viewBox="0 0 36 36" fill="none" xmlns="http://www.w3.org/2000/svg">
<rect width="36" height="36" rx="6" fill="#3A86FF" fill-opacity="0.18"/>
<path d="M15.75 16.5L18.1935 18.333C18.3449 18.4465 18.5336 18.4986 18.7218 18.4789C18.91 18.4591 19.0837 18.369 19.2083 18.2265L24 12.75" stroke="#3A86FF" stroke-width="1.5" stroke-linecap="round"/>
<path d="M24.75 17.9999C24.75 19.4103 24.3083 20.7852 23.4867 21.9317C22.6652 23.0781 21.5052 23.9384 20.1697 24.3918C18.8341 24.8451 17.3901 24.8688 16.0405 24.4593C14.6908 24.0499 13.5033 23.228 12.6448 22.109C11.7862 20.99 11.2997 19.6302 11.2536 18.2206C11.2075 16.811 11.6041 15.4223 12.3878 14.2496C13.1714 13.077 14.3027 12.1792 15.6227 11.6825C16.9427 11.1858 18.3852 11.115 19.7475 11.4801" stroke="#3A86FF" stroke-width="1.5" stroke-linecap="round"/>
</svg>
