<svg width="46" height="46" viewBox="0 0 46 46" fill="none" xmlns="http://www.w3.org/2000/svg">
<rect width="46" height="46" rx="6" fill="#F7BF25" fill-opacity="0.2"/>
<path d="M18 31.3332C17.5417 31.3332 17.1495 31.1701 16.8234 30.844C16.4973 30.5179 16.3339 30.1254 16.3334 29.6665V16.3332C16.3334 15.8748 16.4967 15.4826 16.8234 15.1565C17.15 14.8304 17.5423 14.6671 18 14.6665H28C28.4584 14.6665 28.8509 14.8298 29.1775 15.1565C29.5042 15.4832 29.6673 15.8754 29.6667 16.3332V29.6665C29.6667 30.1248 29.5037 30.5173 29.1775 30.844C28.8514 31.1707 28.4589 31.3337 28 31.3332H18ZM18 29.6665H28V16.3332H26.3334V22.1665L24.25 20.9165L22.1667 22.1665V16.3332H18V29.6665Z" fill="#F7BF25"/>
</svg>
